<svg xmlns="http://www.w3.org/2000/svg" viewBox="0 0 36 36">
  <path fill="#3E721D" d="M17.518 6.323c-.363-.363-.363-3.961 2.052-5.669.605-.428 1.467-.171 1.763.508.586 1.345.209 3.821-1.533 5.161-.913.702-1.919.363-2.282 0z"/>
  <path fill="#5C913B" d="M18.686 7.116c-.079-.503 1.152-3.859 4.271-4.801.781-.236 1.503.347 1.503 1.158 0 1.463-1.389 3.559-3.611 4.02-1.163.241-2.084-.002-2.163-.377z"/>
  <path fill="#77B255" d="M19.089 7.553c.117-.491 2.053-3.4 5.189-3.606.785-.052 1.381.566 1.226 1.361-.307 1.576-2.098 3.327-4.335 3.252-1.171-.039-2.021-.515-2.08-1.007z"/>
  <path fill="#DD2E44" d="M33.958 19.104c0 8.836-7.163 15.999-15.999 15.999-8.837 0-16-7.163-16-15.999 0-8.837 7.163-16 16-16 8.836 0 15.999 7.163 15.999 16z"/>
  <path fill="#EA596E" d="M9.281 10.281c-2.926 2.926-4.268 6.795-4.039 10.587.009.153.161.247.299.174 4.728-2.483 8.793-6.13 11.611-10.57.076-.12.036-.281-.093-.343-3.594-1.719-7.004-2.621-9.778.152z"/>
  <path fill="#A0041E" d="M6.053 20.869c.077 1.109.272 2.2.577 3.263.036.125.179.181.29.113 3.25-1.978 6.162-4.378 8.653-7.1.082-.089.065-.231-.036-.299-2.902-1.952-5.878-3.678-9.484.023z"/>
</svg>
